<?xml version="1.0" encoding="UTF-8" standalone="no"?>
<svg
	xmlns:dc="http://purl.org/dc/elements/1.1/"
	xmlns:cc="http://creativecommons.org/ns#"
	xmlns:rdf="http://www.w3.org/1999/02/22-rdf-syntax-ns#"
	xmlns:svg="http://www.w3.org/2000/svg"
	xmlns="http://www.w3.org/2000/svg"
	xmlns:sodipodi="http://sodipodi.sourceforge.net/DTD/sodipodi-0.dtd"
	xmlns:inkscape="http://www.inkscape.org/namespaces/inkscape"
	width="122.99999"
	height="53.578125"
	viewBox="0 0 32.543748 14.175879"
	version="1.1"
	id="svg1706"
	inkscape:version="1.0.1 (3bc2e813f5, 2020-09-07)"
	sodipodi:docname="Open Collaboration Services icon white.svg">
	<defs
		id="defs1700"/>
	<sodipodi:namedview
		id="base"
		pagecolor="#ffffff"
		bordercolor="#666666"
		borderopacity="1.0"
		inkscape:pageopacity="0.0"
		inkscape:pageshadow="2"
		inkscape:zoom="2.8"
		inkscape:cx="41.222347"
		inkscape:cy="-1.2888533"
		inkscape:document-units="mm"
		inkscape:current-layer="layer1"
		inkscape:document-rotation="0"
		showgrid="false"
		units="px"
		inkscape:showpageshadow="false"
		inkscape:window-width="1920"
		inkscape:window-height="1016"
		inkscape:window-x="0"
		inkscape:window-y="0"
		inkscape:window-maximized="1"
		fit-margin-top="0"
		fit-margin-left="0"
		fit-margin-right="0"
		fit-margin-bottom="0"/>
	<metadata
		id="metadata1703">
		<rdf:RDF>
			<cc:Work
				rdf:about="">
				<dc:format>image/svg+xml</dc:format>
				<dc:type
					rdf:resource="http://purl.org/dc/dcmitype/StillImage"/>
				<dc:title></dc:title>
			</cc:Work>
		</rdf:RDF>
	</metadata>
	<g
		inkscape:label="Layer 1"
		inkscape:groupmode="layer"
		id="layer1"
		transform="translate(-166.68744,-2.6458333)">
		<path
			id="rect981"
			style="fill:#ffffff;fill-opacity:1;stroke-width:2.27926;stroke-linecap:round;stroke-linejoin:round;paint-order:stroke markers fill"
			d="M 47.791016,0 C 32.949642,0 21.001953,11.947679 21.001953,26.789062 c 0,14.841384 11.947689,26.789063 26.789063,26.789063 h 69.421874 c 14.84137,0 26.78906,-11.947679 26.78906,-26.789063 C 144.00195,11.947679 132.05426,0 117.21289,0 Z m 1.154296,10 c 3.413292,0 6.471719,0.722708 9.177735,2.167969 2.736781,1.445261 4.874597,3.443825 6.412109,5.996093 1.568252,2.55227 2.353516,5.426977 2.353516,8.625 0,3.198024 -0.785264,6.074684 -2.353516,8.626954 -1.537512,2.552269 -3.675328,4.550832 -6.412109,5.996093 -2.706016,1.445261 -5.764443,2.167969 -9.177735,2.167969 -3.413265,0 -6.487828,-0.722708 -9.224609,-2.167969 -2.706016,-1.445261 -4.843857,-3.443824 -6.412109,-5.996093 -1.537512,-2.55227 -2.306641,-5.42893 -2.306641,-8.626954 0,-3.198023 0.769129,-6.07273 2.306641,-8.625 1.568252,-2.552268 3.706093,-4.550832 6.412109,-5.996093 C 42.457484,10.722708 45.532047,10 48.945312,10 Z m 38.837891,0 c 2.952013,0 5.610743,0.522851 7.978516,1.568359 2.367773,1.045509 4.336041,2.551517 5.904301,4.519532 l -5.812504,5.259765 c -2.091011,-2.521519 -4.626597,-3.783203 -7.609375,-3.783203 -1.752769,0 -3.321318,0.383588 -4.705079,1.152344 -1.353019,0.768756 -2.414837,1.86088 -3.183593,3.275391 C 79.617478,23.375947 79.25,24.9748 79.25,26.789062 c 0,1.814264 0.367478,3.429241 1.105469,4.84375 0.768756,1.383761 1.830574,2.45976 3.183593,3.228516 1.383761,0.768756 2.95231,1.154297 4.705079,1.154297 2.982778,0 5.518364,-1.261684 7.609375,-3.783203 l 5.812504,5.257812 c -1.56826,1.968015 -3.536528,3.475977 -5.904301,4.521485 -2.367773,1.045508 -5.026503,1.568359 -7.978516,1.568359 -3.382526,0 -6.426797,-0.708536 -9.132812,-2.123047 -2.675276,-1.445261 -4.782801,-3.443825 -6.320313,-5.996093 -1.537512,-2.55227 -2.30664,-5.443101 -2.30664,-8.671876 0,-3.228774 0.769128,-6.119606 2.30664,-8.671874 1.537512,-2.55227 3.645037,-4.534708 6.320313,-5.949219 C 81.356406,10.722708 84.400677,10 87.783203,10 Z m 30.166017,0 c 2.12178,0 4.21121,0.246277 6.27148,0.738281 2.06027,0.461254 3.87511,1.153665 5.44336,2.076172 l -2.81445,6.779297 c -3.07502,-1.660513 -6.05673,-2.490234 -8.94727,-2.490234 -1.81427,0 -3.13656,0.276573 -3.96679,0.830078 -0.83026,0.522754 -1.2461,1.215165 -1.2461,2.076172 0,0.861006 0.49255,1.506996 1.47657,1.9375 0.98398,0.430503 2.56867,0.874683 4.75195,1.335937 2.46002,0.522754 4.48887,1.092027 6.08789,1.707031 1.62976,0.584255 3.02877,1.537116 4.19726,2.859375 1.19927,1.29151 1.79883,3.059921 1.79883,5.304688 0,1.937265 -0.53897,3.691504 -1.61523,5.259765 -1.07626,1.568263 -2.68928,2.827994 -4.8418,3.78125 -2.15251,0.922508 -4.76677,1.384766 -7.8418,1.384766 -2.61376,0 -5.1513,-0.322995 -7.61132,-0.96875 -2.46002,-0.645755 -4.45859,-1.507726 -5.9961,-2.583984 l 2.99805,-6.734375 c 1.44524,0.953257 3.12082,1.722386 5.02734,2.30664 1.90652,0.584255 3.7839,0.876953 5.62891,0.876953 3.50554,0 5.25781,-0.876142 5.25781,-2.628906 0,-0.922507 -0.50867,-1.600746 -1.52343,-2.03125 -0.98399,-0.461253 -2.58286,-0.937683 -4.79688,-1.429687 -2.42928,-0.522754 -4.45813,-1.075902 -6.08789,-1.660157 -1.62976,-0.615003 -3.02876,-1.58399 -4.19727,-2.90625 -1.16853,-1.322259 -1.75195,-3.104841 -1.75195,-5.349609 0,-1.968015 0.53702,-3.736425 1.61328,-5.304687 1.07626,-1.599013 2.6751,-2.860696 4.79688,-3.783204 C 112.21306,10.460306 114.84345,10 117.94922,10 Z m -69.003908,7.564453 c -1.629756,0 -3.105479,0.383588 -4.427734,1.152344 -1.322255,0.768756 -2.367963,1.86088 -3.136719,3.275391 -0.768756,1.383759 -1.154297,2.982612 -1.154297,4.796874 0,1.814264 0.385541,3.429241 1.154297,4.84375 0.768756,1.383761 1.814464,2.45976 3.136719,3.228516 1.322255,0.768756 2.797978,1.154297 4.427734,1.154297 1.629783,0 3.10548,-0.385541 4.427735,-1.154297 1.322255,-0.768756 2.367963,-1.844755 3.136719,-3.228516 0.768756,-1.414509 1.152343,-3.029486 1.152343,-4.84375 0,-1.814262 -0.383587,-3.413115 -1.152343,-4.796874 -0.768756,-1.414511 -1.814464,-2.506635 -3.136719,-3.275391 -1.322255,-0.768756 -2.797952,-1.152344 -4.427735,-1.152344 z"
			transform="matrix(0.26458333,0,0,0.26458333,161.13067,2.6458333)"/>
	</g>
</svg>
